<svg xmlns="http://www.w3.org/2000/svg" width="51" height="51" fill="none" viewBox="0 0 51 51"><path fill="#606060" fill-opacity=".01" d="M0 0h51v51H0z"/><path fill="#FFB3A9" d="M7 19h6.125v11.47h10.5v5.295H19.25V39l-5.542-3.235H7zM26.542 35.765H28v-1.47z"/><path fill="#3B3B3B" fill-rule="evenodd" d="M15.453 32h-3.906c-.303 0-.547-.224-.547-.5s.244-.5.547-.5h3.906c.303 0 .547.224.547.5s-.244.5-.547.5" clip-rule="evenodd"/><path fill="#3B3B3B" fill-rule="evenodd" d="M44 27.472h-8.62L26.809 33l.007-5.511H16V8h28zm-15 8.764h-8.485L20.523 41l-6.061-4.782H6V17.14L14.42 17v7.84H9.949a.587.587 0 0 0-.581.594c0 .328.26.593.58.593h4.472v2.576h10.582l-.01 6.501L29 32.464zM14.752 7v9.142L5 16.302v21.629h9.39L22.15 44l-.009-6.051h8.633v-5.552a.6.6 0 0 0-.039-.198l4.848-3.167H45V7z" clip-rule="evenodd"/><path fill="#3B3B3B" fill-rule="evenodd" d="M35.425 15h-11.85c-.318 0-.575-.223-.575-.5s.257-.5.575-.5h11.85c.318 0 .575.223.575.5s-.257.5-.575.5M34.379 21h-8.758c-.343 0-.621-.224-.621-.5s.278-.5.621-.5h8.758c.343 0 .621.224.621.5s-.278.5-.621.5" clip-rule="evenodd"/></svg>