<svg xmlns="http://www.w3.org/2000/svg" width="18" height="18" viewBox="0 0 18 18">
    <g fill="#212121" fill-rule="evenodd">
        <path d="M17.5 9.017h.01-.01zM8.999 1C4.595 1 1.008 4.579 1 8.985.991 13.396 4.573 16.993 8.984 17H9c4.403 0 7.991-3.578 8-7.984.008-4.411-3.574-8.007-7.985-8.016h-.016zM9 18h-.018C4.02 17.991-.01 13.946 0 8.983.009 4.026 4.045 0 8.999 0h.018C13.979.01 18.01 4.056 18 9.018 17.989 13.974 13.954 18 9 18z"></path>
        <path d="M9.527 8.639V4.946a.446.446 0 0 0-.892 0v3.692l-3.688-.004a.446.446 0 0 0 0 .892l3.688.003v3.686a.446.446 0 0 0 .892 0V9.53l3.752.004a.446.446 0 0 0 0-.892L9.527 8.64z"></path>
    </g>
</svg>