<svg width="51" height="51" viewBox="0 0 51 51" fill="none" xmlns="http://www.w3.org/2000/svg">
<path fill-rule="evenodd" clip-rule="evenodd" d="M0 51H51V0H0V51Z" fill="#606060" fill-opacity="0.01"/>
<path fill-rule="evenodd" clip-rule="evenodd" d="M25 43C15.6261 43 8 35.3739 8 26C8 16.6261 15.6261 9 25 9C34.3739 9 42 16.6261 42 26C42 35.3739 34.3739 43 25 43M43 26.2417C43 16.4581 35.1981 8.47273 25.507 8.20169V6.01705H27.1864C27.4668 6.01705 27.6934 5.78974 27.6934 5.50853C27.6934 5.22782 27.4668 5 27.1864 5H22.8136C22.5332 5 22.3066 5.22782 22.3066 5.50853C22.3066 5.78974 22.5332 6.01705 22.8136 6.01705H24.493V8.20169C14.8019 8.47273 7 16.4581 7 26.2417C7 33.8579 11.7287 40.3823 18.3943 43.0297L17.4785 45.3008C17.3736 45.5617 17.4988 45.8576 17.7584 45.9629C17.8208 45.9883 17.8852 46 17.9486 46C18.1488 46 18.3385 45.88 18.4186 45.6822L19.3475 43.377C21.1262 43.9689 23.0251 44.2944 25 44.2944C26.9744 44.2944 28.8733 43.9689 30.652 43.3775L31.5809 45.6822C31.661 45.88 31.8506 46 32.0509 46C32.1143 46 32.1787 45.9883 32.2411 45.9629C32.5007 45.8576 32.6259 45.5617 32.521 45.3008L31.6052 43.0297C38.2713 40.3828 43 33.8579 43 26.2417" fill="#3B3B3B"/>
<path fill-rule="evenodd" clip-rule="evenodd" d="M38 26.5C38 33.9559 32.1793 40 25 40C17.8202 40 12 33.9559 12 26.5C12 19.0441 17.8202 13 25 13C32.1793 13 38 19.0441 38 26.5" fill="#FFB3A9"/>
<path fill-rule="evenodd" clip-rule="evenodd" d="M24.5265 27H16.4735C16.212 27 16 26.7762 16 26.5002C16 26.2241 16.212 26.0003 16.4735 26.0003H24.0529V17.4998C24.0529 17.2238 24.265 17 24.5265 17C24.788 17 25 17.2238 25 17.4998V26.5002C25 26.7762 24.788 27 24.5265 27" fill="#3B3B3B"/>
<path fill-rule="evenodd" clip-rule="evenodd" d="M24.5 13C24.2235 13 24 12.7701 24 12.4857V10.5143C24 10.2299 24.2235 10 24.5 10C24.7765 10 25 10.2299 25 10.5143V12.4857C25 12.7701 24.7765 13 24.5 13" fill="#3B3B3B"/>
<path fill-rule="evenodd" clip-rule="evenodd" d="M24.5 42C24.2235 42 24 41.7701 24 41.4857V39.5143C24 39.2299 24.2235 39 24.5 39C24.7765 39 25 39.2299 25 39.5143V41.4857C25 41.7701 24.7765 42 24.5 42" fill="#3B3B3B"/>
<path fill-rule="evenodd" clip-rule="evenodd" d="M40.4857 27H38.5143C38.2299 27 38 26.7765 38 26.5C38 26.2235 38.2299 26 38.5143 26H40.4857C40.7701 26 41 26.2235 41 26.5C41 26.7765 40.7701 27 40.4857 27" fill="#3B3B3B"/>
<path fill-rule="evenodd" clip-rule="evenodd" d="M11.4857 27H9.51432C9.2299 27 9 26.7765 9 26.5C9 26.2235 9.2299 26 9.51432 26H11.4857C11.7701 26 12 26.2235 12 26.5C12 26.7765 11.7701 27 11.4857 27" fill="#3B3B3B"/>
</svg>
